<svg width="130" height="105" viewBox="0 0 130 105" fill="none" xmlns="http://www.w3.org/2000/svg">
<path d="M35 57.0006V18C35 8 27 1 18 1C9.99976 1 0.999997 7 1 19L1.00001 87.0005C1.00001 98 11 104 19.5 104C36.5 104 70 88.5006 70 48.0006L70 87C70 96 77 104 87 104C96 104 104 97 104 87V18.5C104 6.50014 93 1 85 1C65 1 35 15.0005 35 57.0006Z" fill="white"></path>
<path d="M34 18C34 8.59037 26.4866 2 18 2C10.4752 2 2 7.62613 2 19V87C2 97.2577 11.3414 103 19.5 103C27.7511 103 40.1487 99.2174 50.4766 90.4268C60.7667 81.668 68.9999 67.9404 69 48.001V36C69.0003 35.4479 69.4479 35 70 35C70.5521 35 70.9997 35.4479 71 36V87C71 95.4866 77.5904 103 87 103C95.4866 103 103 96.4096 103 87V18.5C103 12.8473 100.425 8.75286 96.8916 6.04395C93.3292 3.31273 88.7969 2 85 2C75.2089 2 62.9523 5.43299 53.1582 14.0029C43.3942 22.5467 36 36.2634 36 57.001V68.5C36 69.0523 35.5523 69.5 35 69.5C34.4477 69.5 34 69.0523 34 68.5V18ZM36 39.374C38.9087 27.4852 44.7423 18.7102 51.8418 12.498C62.0477 3.56773 74.7911 0 85 0C89.203 0 94.1709 1.43735 98.1084 4.45605C102.075 7.49717 105 12.1529 105 18.5V87C105 97.5904 96.5134 105 87 105C76.4096 105 69 96.5134 69 87V64.3428C65.8689 76.4117 59.3744 85.4794 51.7734 91.9492C41.1013 101.033 28.2488 105 19.5 105C10.6586 105 0 98.7414 0 87V19C-2.2384e-06 6.37387 9.52434 9.5624e-07 18 0C27.5134 0 36 7.40963 36 18V39.374Z" fill="#171717"></path>
<path d="M126 86C126 77.7157 119.284 71 111 71C102.716 71 96 77.7157 96 86C96 94.2843 102.716 101 111 101C119.284 101 126 94.2843 126 86ZM130 86C130 96.4934 121.493 105 111 105C100.507 105 92 96.4934 92 86C92 75.5066 100.507 67 111 67C121.493 67 130 75.5066 130 86Z" fill="#818CF8"></path>
<path d="M128 86C128 95.3888 120.389 103 111 103C101.611 103 94 95.3888 94 86C94 76.6112 101.611 69 111 69C120.389 69 128 76.6112 128 86Z" fill="#171717"></path>
<path d="M126 86C126 77.7157 119.284 71 111 71C102.716 71 96 77.7157 96 86C96 94.2843 102.716 101 111 101V103C101.611 103 94 95.3888 94 86C94 76.6112 101.611 69 111 69C120.389 69 128 76.6112 128 86C128 95.3888 120.389 103 111 103V101C119.284 101 126 94.2843 126 86Z" fill="white"></path>
</svg>